# xmcd
#
# Track frame offsets:
# 150
# 20211
# 42586
# 64589
# 94831
# 112489
# 127027
# 147995
# 165097
# 186438
# 198258
# 214304
# 229833
# 246492
# 268963
# 286722
# 304824
#
# Disc length: 4283 seconds
#
#
# Revision: 0
# Processed by: cddbd v1.5.1PL2 Copyright (c) Steve Scherf et al.
# Submitted via: FreeRIP 2.944 
#
DISCID=1010b911
DTITLE=nite city - nite city
DYEAR=1977
DGENRE=Blues
TTITLE0=Summer Eyes
TTITLE1=Nite City
TTITLE2=Love Will Make You Mellow
TTITLE3=Angel W/No Freedom
TTITLE4=Midnight Queen
TTITLE5=Bitter Sky Blue
TTITLE6=Cought In A Panic
TTITLE7=In The Pyramid
TTITLE8=Game Of Skill
TTITLE9=Erma Franklin - Light My Fire
TTITLE10=Imani Coppola - I'm A Tree
TTITLE11=The Cure - Hello, I Love You
TTITLE12=The Peter Pan Band - Light My Fire
TTITLE13=T.C. - Hello, I Love You
TTITLE14=Amii Stewart - Light My Fire
TTITLE15=Billy Idol - L.A. Woman
TTITLE16=Echo And The Bunnymen - People Are Strange
EXTD=
EXTT0=
EXTT1=
EXTT2=
EXTT3=
EXTT4=
EXTT5=
EXTT6=
EXTT7=
EXTT8=
EXTT9=
EXTT10=
EXTT11=
EXTT12=
EXTT13=
EXTT14=
EXTT15=
EXTT16=
PLAYORDER=
